<?xml version="1.0" encoding="utf-8"?>
<!-- Generator: Adobe Illustrator 20.0.0, SVG Export Plug-In . SVG Version: 6.00 Build 0)  -->
<svg version="1.1" id="Layer_1" xmlns="http://www.w3.org/2000/svg" xmlns:xlink="http://www.w3.org/1999/xlink" x="0px" y="0px"
	 viewBox="0 0 64 64" style="enable-background:new 0 0 64 64;" xml:space="preserve">
<style type="text/css">
	.st0{fill:#E74C3C;}
</style>
<path class="st0" d="M63.8,26.5c-0.6-4.6-2.5-8.1-5-12.6C56.4,9.4,51.9,6.2,48.8,4c-3.1-2.2-7.5-3.3-11.7-3.7s-9.4-0.4-12.9,0.5
	c-4.9,1.3-8,2.6-11.3,5.6S7.1,12.5,5,15.9c-2.1,3.4-3.7,8.7-3.9,11.2c-0.3,2.6,0,6,0.9,10c0.9,4,2.9,7.7,5.8,12.1
	c2.9,4.5,7,7.3,11.7,10.1c4.7,2.9,14.6,5,18.3,4.5c3.7-0.5,8.9-1.8,14.2-6c5.3-4.2,8.2-11.1,9.8-15.4C63.3,38.2,64.4,31.1,63.8,26.5
	L63.8,26.5z M56.4,46.1c-0.2,0-2.2-3.7-2.3-4c-0.1-0.2,0.8-1.9,0.9-1.9c0.1,0,2.2,3.9,2.2,4C57.2,44.3,56.6,46.1,56.4,46.1z
	 M48.6,21.6c-0.1-0.3-0.1-0.5-0.1-0.6s0.6-1.7,0.5-3c-0.2-1.4-0.8-3.5-0.7-3.6c0-0.1,2.5,1.9,3.8,5s2.5,5.5,3,9.7s0.2,7.3-1.3,10.1
	s-2.6,4.4-3.4,5.3c-0.8,0.8-2.5,1.7-2.8,1.7s-0.9-3.7-1.5-4.9c-0.6-1.2-1.6-2.7-1.6-3c0,0,1.7-1.5,2.3-2.5c0.6-0.9,2.5-4.2,2.5-7.8
	C49.2,24.5,48.7,21.9,48.6,21.6L48.6,21.6z M58.1,42.9c-0.2,0.2-2.7-4.1-2.5-4.2c0.2-0.2,0.9-2.4,1-2.5s2.4,4,2.4,4.3
	S58.3,42.8,58.1,42.9L58.1,42.9z M61.2,31.6c-0.3-0.3-2.2-4.5-2.5-4.6c-0.3-0.1-0.8,0.9-0.7,1.3s2.7,4.5,2.7,4.9
	c0.1,0.4-0.2,2.4-0.3,2.1c-0.1-0.3-2-4-2.2-4c-0.2,0-0.8,0.8-0.8,0.9c0,0.1,2.5,4.7,2.5,5c0,0.3-0.3,2.2-0.5,1.8
	c-0.2-0.3-2.6-4.3-2.7-4.5c0-0.1,0-5.6-0.2-8.1c-0.3-2.5-1.2-7.3-4.6-11.3c-3.4-4-7-6.7-12.3-8s-8.4-1.2-12.3-1
	c-3.9,0.2-9.6,2.4-13.5,8.1C10,20,9.4,21.5,8.6,25.6c-0.9,4,0.1,10.1,0.8,12.6c0.7,2.6,2.6,6.4,4.7,8.3c2.1,2,4.8,3.2,6.8,3.9
	s5.2,1.2,5.4,1.1c0.3-0.1,0.1-3.3,0-3.6s-0.3-0.5-1.1-0.5c-0.8,0-2.4,0-3.4-0.4s-1.8-1.4-2.4-2.4s-1.4-2.3-1.8-2.8
	c-0.4-0.5-1.4-1.3-1.2-1.5c0.1-0.2,1.8-0.3,3,0s3.2,1.7,4.1,2.3c0.9,0.6,2,1.4,2.4,1.4s1.2-1.8,1.5-2.3c0.3-0.4,1.1-1.9,0.8-2.2
	c-0.3-0.3-2.5-0.4-3.5-0.7c-1.1-0.3-3-1.3-4.3-3.1c-1.4-1.8-2-4.4-2-6.3c0-1.9,1.8-5.4,2.2-6.2c0.4-0.7,0.9-1.4,0.6-1.6
	c-0.2-0.3-1.2-1.6-1.4-2.6c-0.2-1,0.6-3.3,0.8-3.4s1.3,0.2,2.1,0.3c0.8,0.1,2.7,0.6,3.4,1.1c0.7,0.5,0.9,0.7,1.3,0.7
	s3.4-0.7,4.5-0.9c1-0.2,4.1-0.6,5.2-0.4s2.9,1.3,3.2,1.1c0.3-0.2,1-1.5,2.5-1.9c1.5-0.4,4-0.5,4.3-0.3c0.3,0.3,0.7,2.9,0.5,4.3
	c-0.2,1.4-0.6,2.1-0.4,2.5c0.2,0.4,1.3,2.9,0.8,5.1c-0.6,2.2-1.4,5.4-4.1,7.5c-2.7,2.1-3.6,2.4-3.9,2.6c-0.3,0.2,0,0.9,0.3,1.1
	s2.3,1.6,3.3,4.6c1,3,1.1,4.8,1.1,5.5s0.7,0.9,1.3,0.8c0.5-0.1,1.2-0.5,2.1-1.2s3.4-2.5,3.6-2.4c0.2,0.1,1.8,3.5,2.2,3.6
	c0.4,0.1,0.7-0.2,0.7-0.4c0-0.2-1.2-2.7-1.6-3.4c-0.3-0.7-0.6-1.1-0.5-1.3s0.9-1.2,1-1c0.2,0.2,1.9,2.9,2.2,3.3
	c0.3,0.5,0.5,0.6,0.2,1.1c-0.3,0.6-1.4,2-2,2.5c-0.5,0.5-0.8,1.1-1.1,0.8c-0.3-0.3-1.9-3.2-2.2-3.2c-0.3,0-0.9,0.6-0.9,0.8
	s2.2,3.3,2.2,3.5s-1.1,1.5-2.2,2.3c-1.1,0.8-1.8,1.4-2,1.1c-0.2-0.3-2.4-5.3-2.7-5.4s-1.1,0.2-0.9,0.6s2.8,5.1,2.7,5.3
	c0,0.2-0.9,0.8-1.1,0.6c-0.3-0.2-3-6-3.4-6s-0.9,0.1-0.9,0.7s3.6,5.6,3.4,5.9c-0.2,0.3-0.8,0.9-1.1,0.6c-0.3-0.3-3.5-6.8-3.8-6.9
	c-0.2,0-1.1,0.2-1.1,0.3c0,0.2,3.7,7.1,3.7,7.2c0,0.2-1.4,0.9-1.8,0.7c-0.3-0.2-3.6-7.5-3.8-7.6c-0.3-0.2-1.3,0.5-1.2,0.6
	c0.1,0.1,4,6.9,3.8,7.3c-0.2,0.3-1.1,0.5-1.3,0.3s-3.9-7.2-4.1-7.3c-0.3-0.1-1,0.3-1,0.6c0.1,0.3,3.9,6.7,3.8,6.8
	c-0.1,0-1.1,0.1-1.3,0s-3.5-5.3-3.9-5.5c-0.4-0.1-0.9,0.5-0.9,0.6s3.2,4.7,3,4.8s-1.2,0-1.4-0.2c-0.2-0.1-2.4-4-2.7-4.1
	c-0.3-0.1-1,0.4-0.9,0.7c0.1,0.2,2.3,3.2,2,3.2s-1,0-1.3-0.2c-0.3-0.2-1.8-3.3-2.1-3.4c-0.3-0.1-0.8,0.3-0.9,0.4
	c0,0.1,1.2,2.3,0.9,2.3c-0.3,0-1.1,0-1.3-0.2c-0.2-0.2-1.6-2.5-1.8-2.6s-0.9,0.3-0.8,0.5s0.7,1.2,0.5,1.2c-0.2,0-5-1.3-7.5-3
	c-2.5-1.7-7.3-7.1-8.8-8.8c-1.5-1.6-3.5-6.5-4.2-9.2C2.6,34,2.5,30,2.5,28c0-2.1,1.7-7.6,2.6-9.5c0.9-1.9,4.5-6.9,6.8-9.3
	s6.2-5.3,10.3-6.5s7.5-1.5,9.4-1.5C36,1.3,41.1,1.9,44.2,3c3.1,1.1,9,5.7,10.4,7.3s3.2,4.6,4.2,6.8c1,2.2,1.8,4,1.6,3.9
	s-1.5-2.4-1.7-2.4c-0.3,0-0.8,0.4-0.7,0.7c0.1,0.3,2.4,3.9,2.7,4.4c0.2,0.5,0.5,1,0.5,1.1c0,0.1,0.3,3.2,0.2,3.1
	c-0.1-0.2-2.3-4.2-2.6-4.3c-0.3-0.1-0.5,0.3-0.5,0.5c0.1,0.1,3.1,5.3,3.1,5.5C61.4,29.8,61.5,31.9,61.2,31.6L61.2,31.6L61.2,31.6z
	 M19.6,21.8c0.5,0.5-0.6,1.2-1.4,2.9c-0.8,1.7-1.5,5.1-1.1,7.2c0.4,2,1.4,4.5,3.6,6.4s5.2,2,5.5,2.2c0.3,0.2-0.5,1.3-0.7,1.5
	s-0.2,0.2-0.6,0c-0.4-0.2-2.9-2.4-5.6-2.9c-2.6-0.6-4.2,0.2-4.8,0.7c-0.6,0.5,0.1,1.4,0.8,2c0.7,0.6,1.6,1.6,2.7,3.6
	c1.1,2,1.7,2.4,3.5,3c1.7,0.6,3.1,0.6,3.4,0.6s0.2,0.8,0,1.1c-0.2,0.3-0.9-0.5-2-0.8c-1.1-0.3-3-0.5-4.1-1.2
	c-1.1-0.7-4.7-4.9-5.3-6.7c-0.7-1.8-2.1-5.9-2.1-8c0-2-0.2-5.5,0.6-8.2c0.8-2.6,2.6-7,5.3-10s6.6-5.3,12.3-5.9
	c5.7-0.6,10.8,1.1,13.9,2.2c3.1,1.1,3.9,1.8,3.9,2c0,0-0.9,0.2-3.4,0.3c-2.5,0.2-4.1,1.5-4.2,1.6c-0.1,0.2-2.6-0.4-5.3-0.6
	c-2.6-0.2-6.3,1-6.4,1s-0.5,0-1.5-0.4c-1-0.4-5.7-1.4-6.2-1.4c-0.5,0-1.8,1.5-2,3.8C18.1,20.1,19.1,21.3,19.6,21.8L19.6,21.8
	L19.6,21.8z M38.3,2.3c-4.1-0.6-6.7-0.3-6.9-0.1c-0.4,0.4-0.3,1.2,0.2,1.2c0.5,0.1,3-0.3,6.2,0C41,3.7,43.4,4.9,43.9,5
	c0.5,0,0.8-0.8,0.5-1.1C44.2,3.6,42.4,2.8,38.3,2.3L38.3,2.3z M7.8,17.7C4.6,21,4,25.5,3.7,27s0.7,2.2,1.2,2c0.5-0.2,0-1.5,1-4.9
	s2.4-4.6,2.8-5.5C9.2,17.8,8.1,17.4,7.8,17.7L7.8,17.7z M22.8,30.8c-0.4-1-0.1-2.2,0.1-3.3c0.2-1.1-0.8-1-1.1-0.8
	c-0.7,0.7-0.9,2.8-0.7,4.1c0.3,1.3,1.4,3.2,2,3.5c0.6,0.3,1.2-0.1,1.1-0.7C24.2,32.9,23.2,31.7,22.8,30.8z M19.1,41.4
	c-1,0.7,0,1.3,0.4,1.3s0.8-0.2,0.6-0.8C19.9,41.2,19.3,41.2,19.1,41.4L19.1,41.4z M21.2,43.2c-0.7,0.4-0.1,1.4,0.4,1.4
	c0.5,0,0.9-0.3,0.9-0.8C22.5,43.2,21.5,43,21.2,43.2L21.2,43.2z M24.1,44.5c-1,0.2-0.7,1.2-0.2,1.3s0.9-0.1,1.1-0.6
	C25.1,44.6,24.7,44.3,24.1,44.5L24.1,44.5z M42.5,18c0.2,0,0.9,0.1,1.2,0.1c0.3,0,0.3,1.9,0.5,2.5c0.2,0.6,1,0.6,1.3,0.3
	c0.3-0.3-0.1-3.4-0.3-3.7c-0.2-0.3-2.4,0.1-2.7,0.2C42.2,17.4,42.3,18,42.5,18z M48.6,54.4c0.2,0,0.8-0.2,0.9-0.6
	c0-0.3-1.7-4.5-1.9-4.6c-0.2-0.1-1.2,0.3-1.2,0.5C46.4,50.1,48.4,54.4,48.6,54.4L48.6,54.4z"/>
</svg>
