<?xml version="1.0" encoding="utf-8"?>
<!-- Generator: Adobe Illustrator 20.0.0, SVG Export Plug-In . SVG Version: 6.00 Build 0)  -->
<svg version="1.1" id="Layer_1" xmlns="http://www.w3.org/2000/svg" xmlns:xlink="http://www.w3.org/1999/xlink" x="0px" y="0px"
	 viewBox="0 0 64 64" style="enable-background:new 0 0 64 64;" xml:space="preserve">
<style type="text/css">
	.st0{fill:#E74C3C;}
</style>
<path class="st0" d="M63.7,31.1c-0.3-5.8-0.3-11.5-0.6-12.6c-0.4-1.2-6-4.9-8.3-5.9S43.1,6.7,40.5,5.2C37.8,3.8,32.4,0,31.6,0
	c-0.8,0-2.2,0.8-3.6,1.5s-6.7,4.2-10.5,6.2s-8.1,4.8-12.7,6.9s-4.4,2.3-4.6,3.2c-0.1,0.6,0.3,3.5,0.5,7.6S0.1,37.8,0,40.1
	c-0.1,2.3,0.4,3.6,1.3,5c0.9,1.4,5,3.5,9.3,5.9s11.5,7.5,15,10.1s4.4,2.5,5.9,2.9c1.5,0.4,10.8-5.2,18.1-9.7
	c7.3-4.5,14-8.6,14.2-9.4C64.1,44.1,64.1,36.8,63.7,31.1L63.7,31.1z M62.5,41c-0.2-0.2-4.6-5.2-4.8-5c-0.2,0.2-0.4,0.7-0.3,0.9
	S62,41.7,62,42s-0.2,0.8-0.5,0.7c-0.3-0.1-4.1-3.9-4.6-4s-1.2,0.6-0.7,1s4.2,3.6,4.2,3.8s-1,1.2-1.2,1.1c-0.3-0.2-3.6-3.7-4.2-3.7
	s-1.1,0.5-0.8,0.7c0.3,0.2,3.9,3.6,3.7,3.8s-0.9,1.3-1.4,1s-3.3-3.7-3.8-3.7s-1,0.5-0.8,0.8c0.2,0.2,3.4,3.3,3.4,3.6s-1,0.7-1.3,0.6
	c-0.3-0.1-3.2-3.6-3.6-3.6c-0.4,0-1,0.3-0.8,0.6s3.4,3.7,3.4,3.9c-0.1,0.1-0.8,0.9-1,0.6c-0.2-0.2-2.8-3.6-3.5-3.6s-1,0.3-0.9,0.5
	s3.5,3.4,3.2,3.6c-0.3,0.2-1,0.7-1.3,0.5c-0.3-0.2-3.2-3.2-3.7-3.3c-0.4-0.1-1,0.5-0.8,0.8c0.2,0.2,3.7,3,3.3,3.3
	c-0.4,0.2-1.6,1.4-2,1.1c-0.4-0.2-2.9-3.2-3.5-3.1s-1.2,0.3-0.9,0.7s3.1,2.8,2.9,3.1c-0.2,0.3-0.7,0.8-1,0.5s-2.8-2.8-3.2-2.8
	c-0.4,0-1,0.3-0.8,0.6c0.2,0.3,3.4,2.5,3.1,3c-0.3,0.6-1.4,1.2-1.6,1c-0.2-0.2-3-3.1-3.4-3s-0.9,0.3-0.5,0.7c0.3,0.3,3,2.7,2.9,3
	s-0.9,0.9-1,0.7c-0.2-0.2-3.5-3.5-3.7-3.4c-0.2,0.1-0.9,1-0.5,1.2c0.3,0.2,3.4,2.5,3.1,2.8c-0.3,0.2-1.1,1.1-1.5,0.9
	c-0.3-0.2-2.9-2.6-3.2-2.6c-0.3,0-0.8,0.6-0.3,1s2.6,2.1,2.5,2.2s-0.4,0.6-0.8,0.4s-2.8-2.2-3.2-2.2c-0.4,0-1.1,0.5-0.9,0.8
	s2.8,1.7,2.6,2c-0.1,0.3-0.7,0.9-1.1,0.7c-0.4-0.2-11.9-7.2-15.6-9.4s-8.4-5.1-11-6.7s-3.9-1.9-4.3-3.4s0.3-8,0.4-11.7
	s-0.1-6.7-0.2-7.6s-0.2-2.8-0.2-3.2c0.1-1,2.1-1.8,6-3.5s16.2-9,18.2-10.3s4.8-2.9,5.5-2.8C31.9,1.8,38,6.2,42.3,8
	s13.2,6.2,14.5,7.2s2,1.5,2,1.7s-0.3,0.5,0.2,0.8c0.5,0.3,2.8,2.3,2.8,2.5c0,0.2,0.3,2.2,0.1,2.1c-0.2-0.1-2.4-3-3-3s-1,0.6-0.7,0.9
	c0.3,0.3,3.6,3.3,3.8,3.7s0.4,1.4,0.2,1.2c-0.2-0.2-2.7-2.7-2.9-2.7c-0.2,0-0.6,0.2-0.5,0.8s3.3,3.4,3.4,3.7
	c0.1,0.2,0.1,2.3-0.1,2.2c-0.1-0.1-2.6-3.2-2.8-3.2c-0.2,0.1-0.3,0.8-0.3,0.8s3,3.6,3.2,4s0.3,3.1,0.1,2.7c-0.2-0.5-2.6-3.1-2.9-3.2
	S59,30.6,59.2,31c0.1,0.4,3.2,3.7,3.3,3.9s0.2,2.9,0,2.5s-3-3.6-3.3-3.4c-0.3,0.2-0.7,0.6-0.4,0.9c0.2,0.3,3.6,3.9,3.8,4.2
	S62.7,41.2,62.5,41L62.5,41z M9.9,22.5c0.8,0.4,7.4,4.8,8,5.1s2.4,0.1,4.5-0.8s5.8-2.7,5.9-3.1c0.1-0.4,0.1-7,0-8.1
	c-0.1-1.1,0-5.5-0.4-5.6s-8.6,4-11,5.5s-8.4,4.5-8.7,4.8C7.7,21.1,9.1,22.2,9.9,22.5L9.9,22.5z M12.5,21.6c0.1-0.3,6.7-3.9,9-5.5
	s4.9-3,5.1-2.6s0.9,8.8,0.3,9.4c-0.6,0.6-7.3,3.8-8.1,3.3C18,25.8,12.2,22.9,12.5,21.6z M34.5,23.4c0.1,0.5,6.9,3.6,7.4,3.8
	s1.5-0.2,2.5-0.6S54.1,21.5,55,21c0.9-0.5,1.4-0.7,1.4-1.5s-1.3-1.9-4.3-3.6s-9.6-4.6-12.6-5.9c-2.9-1.3-3.8-0.9-4.4-0.5
	c-0.9,0.6-0.6,2.6-0.7,3.7S34.4,22.9,34.5,23.4L34.5,23.4L34.5,23.4z M36.1,10.6c0.2-0.2,6,2.1,11.2,4.8s7.4,3.9,7.3,4.3
	s-6.1,3.3-8.7,4.5c-2.6,1.2-3.3,1.5-3.6,1.4c-0.3-0.1-5.8-2.6-6.1-3.2c-0.2-0.6,0-5.6-0.1-7.2S35.8,11,36.1,10.6z M37.4,29
	c-0.4-0.5-5.4-3.3-6.1-3.4c-0.7-0.1-1.8,0.7-3.2,1.5c-1.4,0.9-3.2,2-3.2,2.4c0.2,1.1,5.4,3.4,6.4,3.6s4.6-2.2,5.3-2.7
	S37.8,29.5,37.4,29L37.4,29z M31.5,31.5c-0.5-0.2-1.7-1-1.8-1.3c-0.1-0.3,3.2-2.2,3.7-1.9s1.7,0.7,1.7,1S32,31.7,31.5,31.5
	L31.5,31.5z M25.1,8.6c0.7-0.5,4.7-2.5,5.5-3s2,0.4,2.3,0.6c0.3,0.2,1-0.2,1.1-0.6c0.2-0.4-1.5-1.2-2.1-1.5
	c-0.5-0.3-1.1-0.3-2.1,0.1s-6,3.1-6.3,3.4s0,0.9,0.2,1C24.2,8.9,24.4,9.1,25.1,8.6L25.1,8.6z M6.8,18.4c0.4-0.3,0-0.6-0.5-0.9
	s-3.3,1-3.5,1.5s0.3,3,0.6,3.2c0.4,0.3,0.9-0.1,1.2-0.6s-0.2-1.3-0.2-1.8S6.5,18.8,6.8,18.4L6.8,18.4z M9.2,33.4
	c1.1-0.7,3-1.5,2.8-2.1c-0.2-0.6-4-3.1-4.8-3.6c-0.8-0.5-2.1,0.1-2.3,0.5c-0.1,0.3,0,4.3,0,5c0,0.7-0.1,1.5,0.7,1.9
	S8.1,34.1,9.2,33.4L9.2,33.4z M8,30.4c0.1-0.3,1.6,0.8,1.5,1.1c0,0.3-1.2,1.2-1.6,1C7.7,32.3,7.9,30.7,8,30.4L8,30.4z M26.9,38.6
	c-0.8-0.5-8.5-4.5-9-4.5S5.8,40.3,5.8,40.5c0,0.6,3.5,2.1,7.9,4.6s12.3,7.1,13,7.6s1.6,0.2,2.1-0.2s0.1-10.9,0.1-11.7
	C28.8,39.9,27.7,39.1,26.9,38.6L26.9,38.6z M27.3,51c-0.5-0.1-10.9-6-12.5-6.8s-2.9-1.8-2.9-2c0.1-0.6,7.2-5.6,7.9-5.4
	c0.7,0.2,7.2,3.5,7.5,4S27.8,51.2,27.3,51L27.3,51z M42.9,33.9c-1-0.1-9.1,4.2-9.3,4.8c-0.1,0.5,0.8,10.3,0.8,10.6s0.6,0.9,1.3,1.1
	s2.3-0.5,4.9-1.9s12.4-7.1,12.7-7.7c0.3-0.6,0.2-1.5-0.1-1.8C53.1,38.7,43.9,34.1,42.9,33.9L42.9,33.9L42.9,33.9z M43.3,45.5
	c-3.5,2-6.5,3.9-6.9,3.4s-1.1-7.1-1.1-7.6c0-0.4,8.9-5.2,9.8-4.9s7,3,7,3.6S46.8,43.5,43.3,45.5z M56.8,24.7c-0.5,0-7.9,4.5-7.9,4.8
	c-0.2,1.6,3.7,2.3,5.4,3s3.3,1.4,3.7,0.9s0.1-4.5,0.1-6.6S57.3,24.7,56.8,24.7L56.8,24.7z M56.6,31.8c-0.5-0.2-5-2-5.3-2.3
	c-0.3-0.3,4.8-3.2,5.2-2.8C56.8,27.1,57,32,56.6,31.8L56.6,31.8z"/>
</svg>
