<?xml version="1.0" encoding="utf-8"?>
<!-- Generator: Adobe Illustrator 20.0.0, SVG Export Plug-In . SVG Version: 6.00 Build 0)  -->
<svg version="1.1" id="Layer_1" xmlns="http://www.w3.org/2000/svg" xmlns:xlink="http://www.w3.org/1999/xlink" x="0px" y="0px"
	 viewBox="0 0 64 64" style="enable-background:new 0 0 64 64;" xml:space="preserve">
<style type="text/css">
	.st0{fill:#E74C3C;}
</style>
<path class="st0" d="M4.8,19.2c1.9,1.2,5.6,1.3,8.1,1.1c2.4-0.2,6.2-3.1,6.4-8.3c0.2-5.2-3.5-7.9-3.5-7.9C11.4,0.4,5.3,2.5,4,3.3
	c-1.3,0.8-4.8,3.9-3.8,8.2S2.5,17.8,4.8,19.2z M3.1,5.8c1-1.3,3-2.7,6.9-2.1s5,2.3,6.1,3.9s1,3.1,1,3.1s-2.5-4.4-2.9-4.3
	c-0.4,0.1-0.9,0.8-0.7,1.2c0.3,0.5,3.2,4.3,3.1,4.6c-0.1,0.3-0.2,1.1-0.3,0.9s-2.4-4.3-2.7-4.2c-0.3,0.1-0.7,0.6-0.5,1.1
	c0.2,0.6,2.7,3.9,2.6,4s-0.6,0.8-0.7,0.6c-0.1-0.2-2-4-2.4-3.9c-0.4,0.1-0.7,0.5-0.4,1.1c0.2,0.6,2.3,3.3,2.2,3.5
	c-0.1,0.2-0.5,0.6-0.7,0.4c-0.2-0.1-2.2-3.3-2.5-3.3c-0.3,0-0.9,0.7-0.6,1.1c0.3,0.4,2.1,2.7,1.9,2.8c-0.2,0.1-1.5,0.3-1.7,0.3
	c-0.2-0.1-1.2-2.2-1.5-2.2s-1,0.5-0.9,0.9c0.1,0.4,1.3,1.4,1,1.6c-0.3,0.1-3.9-0.4-5.5-1.5S0.3,9.8,3.1,5.8z M5.5,13.8
	c0.3-0.3,0.2-0.4,0.2-0.7s-0.9-1-1.1-1.6c-0.2-0.6,0-2.2,0.8-3s1-1.4,0.3-1.7C5.1,6.6,3.7,7.5,3.4,9.3s0,3.4,0.6,4.1
	S5.2,14.1,5.5,13.8z M8.9,26.6c-0.7-0.2-4.4-0.2-4.9-0.1s-0.6,5.2-0.5,5.7c0.1,0.6,0,1.4,0.5,1.5c0,0,0.8,0.1,1,0
	c0.2-0.1,0.3-5.2,0.4-5.5c0.1-0.4,3.8-0.1,4-0.2C9.6,27.8,9.6,26.8,8.9,26.6z M17.9,23.5c-1.4-0.5-8.6-0.7-11-0.7s-5.3-0.1-5.6,0.5
	C1,23.7,1.1,33.6,1,40.2S0.4,56.7,0.7,57.1s4.2,3.2,4.5,3.5c0.3,0.2,1.1,0.3,3.2,0.3c2.1,0,9,0.3,9.9,0.1s1.8-0.5,2-1.1
	c0.3-0.6,0.3-3.6,0.5-10.4s1.1-15.9,1-19.5S19.3,24,17.9,23.5C17.9,23.5,17.9,23.5,17.9,23.5z M18,32c-0.2-0.1-2.2-3.3-2.5-2.9
	c-0.3,0.4-0.4,0.7,0,1.4c0.4,0.6,2.4,3.6,2.4,4c0,0.3,0.1,2,0,2s-2.5-3.8-2.8-3.6s-0.6,0.8-0.5,1s3.1,4.2,3.2,4.8
	c0.1,0.7,0,1.7-0.1,1.5c-0.1-0.2-2.4-4.6-2.7-4.4c-0.4,0.2-0.7,1-0.4,1.5c0.3,0.5,3,4.3,3.1,4.5c0.1,0.2,0,1.9-0.2,1.8
	c-0.2-0.1-2.5-4.4-2.8-4.3c-0.3,0-0.7,0.9-0.6,1.4c0.1,0.5,3.4,4.7,3.3,5.2c-0.1,0.5,0,2.3-0.2,2.2c-0.2-0.1-2.9-5-3.1-5.1
	c-0.2-0.1-0.7,0.9-0.6,1.2c0.1,0.4,3.6,6,3.6,6.5c0,0.5,0,3.1-0.2,3s-3.3-6.2-3.9-6.3c-0.5,0-0.6,1-0.5,1.3c0.1,0.3,4.1,6.4,4.2,6.8
	s0,0.7-0.4,0.9s-0.6,0.1-0.6,0c0-0.1-3.1-5.4-3.5-5.6s-0.8,0.6-0.8,0.7c0,0.2,3.7,4.9,3.3,5.3s-1.3,0.3-1.6,0.1
	c-0.2-0.2-3.3-5.5-3.6-5.5c-0.3,0-1,0.9-0.8,1.1c0.2,0.2,3.2,4.4,2.9,4.4s-1.3,0.3-1.5,0.1s-2.6-4.1-2.9-4.1c-0.4,0-0.7,0.5-0.7,0.6
	s2.4,3.3,2.1,3.3s-1.3,0.1-1.4,0c-0.2-0.1-1.7-3-1.9-3s-0.9,0.5-0.9,0.7c0,0.2,1.8,2.3,1.4,2.4C5.3,57.2,3.2,57,3,56.9
	c-0.1-0.1-0.9-0.8-0.9-1.5c0-0.7,0.2-30.4,0.5-31c0.1-0.2,6.2,0.1,9.3,0.3c3.2,0.2,5.2-0.2,5.7,0.4c0.5,0.6,0.6,3.3,0.4,3.1
	c-0.2-0.2-1.4-2.6-1.8-2.5c-0.4,0.1-0.7,0.9-0.5,1.4c0.2,0.5,2.2,3.3,2.3,3.7C18.2,31.2,18.2,32.1,18,32L18,32z M63.8,35.2
	c-0.3-4.3-2.7-7.6-6.1-9.8s-9.1-2.7-12.9-1.9s-7.9,4.3-8.1,4.3s0-3-0.1-3.7s-1.4-0.6-4.7-0.7s-7.8,0-7.8,0.3
	c-0.2,0.8,0.1,15.9,0.2,21.4s-0.2,11.4,0,12.1c0.2,0.7,2.5,3.3,3.3,3.3s8.9-0.1,10.2-0.3c1.4-0.2,1.4-1.5,1.4-3.2s0-15.1,0.6-19.3
	s3.9-5.7,6.6-5c2.7,0.7,3.2,3.7,3.7,7.4c0.6,3.7-0.5,14.1-0.5,15.2s0.1,4.5,0.8,4.7c0.6,0.2,10.1,0,11.5,0s1.9-0.2,2.1-1.2
	C64.1,57.8,64.1,39.6,63.8,35.2L63.8,35.2L63.8,35.2z M58.7,32.8c0.1,0.2,3.3,5.2,3.3,5.6s0,1.4-0.2,1.3c-0.1-0.1-2.2-4-2.6-4
	s-0.9,0.8-0.7,1.1s3.1,4.8,3.1,5.1c0,0.3,0.1,2.4,0,2.3c-0.1-0.2-2.7-4.8-3-4.8s-0.5,0.8-0.5,1.2c0,0.4,3.3,5.4,3.3,5.6
	c0,0.2,0,3.3-0.3,3.3c-0.3,0-1.3-1.7-2.1-3.5c-0.9-1.8-1-2.4-1.4-2.3c-0.4,0.1-0.3,1.5-0.2,1.8c0.1,0.3,3.3,5.7,3.3,6
	c0,0.3,0.1,2.7-0.2,2.4c-0.3-0.2-3.1-6.3-3.4-6.3c-0.3,0-0.8,1-0.7,1.2c0.1,0.2,3.5,6,3.6,6.8c0.1,0.8,0,1.3-0.3,1.3
	c-0.3,0-0.4-0.2-0.5-0.4c-0.1-0.2-3.2-5.5-3.4-5.6c-0.2,0-0.7,1-0.5,1.3c0.2,0.3,3,4.5,2.8,4.5s-1.3,0-1.5,0
	c-0.1-0.1-2.5-3.7-2.7-3.7c-0.2,0-0.8,0.8-0.7,1c0.1,0.2,2,2.6,1.8,2.7c-0.2,0.1-1.1,0.1-1.3,0S52.5,54,52.1,54
	c-0.3,0-0.6,0.7-0.6,0.9s1.4,1.9,1,2c-0.4,0.1-1.5,0.2-1.5,0s0.6-4.6,0.7-8.3c0-3.8-0.2-7.8-0.7-10.4c-0.4-2.6-0.7-5-2.5-6.1
	c-1.8-1-5-1.5-7.4,0c-2.4,1.5-3.3,3.1-3.7,3.7c-0.4,0.5-0.4,1.2-0.4,1.2s-1.3-2.3-1.8-1.6c-0.5,0.6-0.5,1-0.3,1.2
	c0.2,0.2,1.5,1.3,1.6,1.8c0,0.5,0.2,2.9,0,2.9s-1.7-3.2-2.1-3c-0.4,0.2-0.5,1.4-0.4,1.5c0,0.1,2.1,3,2.1,3.4c0,0.4,0,2.1-0.1,2
	c-0.1-0.1-2.3-4-2.5-3.9c-0.2,0.1-0.6,0.8-0.6,1.1c0,0.3,3.2,5,3.3,5.3c0,0.2,0,2.9-0.2,2.9s-2.8-5.2-3-5.2c-0.2,0-0.8,1-0.7,1.3
	c0.1,0.3,3.6,5.6,3.7,6c0.1,0.4,0.1,3.2,0,3.2s-3.7-7.3-3.9-7.3s-0.9,0.9-0.8,1s3.8,6.6,3.8,6.9S35,56.6,35,56.6s-0.3,0.1-0.3,0
	c-0.1-0.1-3.1-5-3.4-5.1c-0.3-0.1-1,0.7-0.8,0.9s3.1,4,3,4.2c-0.1,0.2-1.5,0.1-1.6,0c-0.1-0.1-2.3-4-2.6-3.9c-0.3,0-0.9,0.9-0.8,1.1
	c0,0.1,2.1,2.9,2.1,3c0,0.1-1.2,0.1-1.3,0c-0.1-0.1-1.9-3-2.4-3s-0.7,0.9-0.6,1C26.5,55,28,57,27.7,57c-0.3,0-2.3,0.1-2.4-0.4
	c0-0.5,0.4-10.4,0.4-13.6c0-3.3-0.3-17.3-0.2-18.1c0-0.2,6.5,0,7.6,0c1.1,0,1.8,0,1.9,0.2c0.1,0.1,0,5.4,0.3,5.6
	c0.4,0.2,1.4-0.8,1.7-1.1c0.3-0.3,1.8-1.6,5.1-3.1c3.3-1.5,7.8-1.9,10.1-1.4s4.8,1.2,6.4,3.4c1.6,2.2,2.8,4.1,3.1,5.2
	c0.3,1.2,0.3,2.2,0.1,2.2c-0.2,0-2.1-4.8-2.6-4.7C58.7,31.4,58.6,32.6,58.7,32.8L58.7,32.8L58.7,32.8z M32.6,26.5
	c-0.4-0.2-4.4-0.2-4.6-0.2c-0.3,0-0.4,0.5-0.4,0.7c0,0-0.1,0.6,0.1,0.8s3.4,0.1,3.8,0.1s0.4,1.7,0.4,2.1c0,0.3,1.2,0.1,1.3,0.1
	c0.2,0,0.2-0.6,0.2-1.3S32.9,26.7,32.6,26.5L32.6,26.5z M45.9,28.4c-0.3,0.2-0.4,1,0.2,1.3s3.2,0.8,4.6,1.9c1.4,1.1,1.4,4.3,1.5,4.6
	c0,0.3,1,0.6,1.4,0.1c0.4-0.5,0.2-2.7-1.3-5.3C50.7,28.4,46.1,28.3,45.9,28.4L45.9,28.4z"/>
</svg>
